<svg width="88" height="102" viewBox="0 0 88 102" fill="none" xmlns="http://www.w3.org/2000/svg">
<path d="M34.0857 23.74C34.0857 22.7133 33.9924 21.6867 33.8057 20.66C33.7124 19.54 33.4324 18.56 32.9657 17.72C32.5924 16.7867 31.9857 16.04 31.1457 15.48C30.399 14.92 29.3257 14.64 27.9257 14.64C26.1524 14.64 24.659 15.2 23.4457 16.32C22.8857 14.8267 22.6057 13.4733 22.6057 12.26C22.6057 10.7667 22.839 9.32 23.3057 7.91999C23.8657 6.42666 24.7057 5.12 25.8257 3.99999C26.9457 2.88 28.3457 1.99333 30.0257 1.33999C31.799 0.593326 33.9457 0.219992 36.4657 0.219992C42.0657 0.219992 46.4057 1.89999 49.4857 5.25999C52.5657 8.62 54.1057 13.24 54.1057 19.12V102C51.5857 102 49.1124 101.813 46.6857 101.44C44.3524 101.067 42.2057 100.32 40.2457 99.2C38.379 97.9867 36.8857 96.2133 35.7657 93.88C34.6457 91.5467 34.0857 88.42 34.0857 84.5V23.74ZM20.5057 102H19.1057C16.679 102 14.3457 101.767 12.1057 101.3C9.8657 100.833 7.85904 99.9933 6.0857 98.78C4.4057 97.5667 3.0057 95.8867 1.8857 93.74C0.859037 91.5933 0.345703 88.7933 0.345703 85.34V0.359998H2.5857C4.8257 0.359998 7.01904 0.639998 9.1657 1.2C11.3124 1.66666 13.2257 2.55333 14.9057 3.86C16.5857 5.07333 17.939 6.75333 18.9657 8.9C19.9924 11.0467 20.5057 13.8 20.5057 17.16V102ZM67.6857 23.74C67.6857 22.7133 67.5924 21.6867 67.4057 20.66C67.3124 19.54 67.0324 18.56 66.5657 17.72C66.1924 16.7867 65.5857 16.04 64.7457 15.48C63.999 14.92 62.9257 14.64 61.5257 14.64C59.7524 14.64 58.259 15.2 57.0457 16.32C56.4857 14.8267 56.2057 13.4733 56.2057 12.26C56.2057 10.7667 56.439 9.32 56.9057 7.91999C57.4657 6.42666 58.3057 5.12 59.4257 3.99999C60.5457 2.88 61.9457 1.99333 63.6257 1.33999C65.399 0.593326 67.5457 0.219992 70.0657 0.219992C75.6657 0.219992 80.0057 1.89999 83.0857 5.25999C86.1657 8.62 87.7057 13.24 87.7057 19.12V102C85.1857 102 82.7124 101.813 80.2857 101.44C77.9524 101.067 75.8057 100.32 73.8457 99.2C71.979 97.9867 70.4857 96.2133 69.3657 93.88C68.2457 91.5467 67.6857 88.42 67.6857 84.5V23.74Z" fill="#00CE93"/>
</svg>
